<?xml version="1.0" encoding="UTF-8" standalone="no"?>
<svg
   viewBox="0 0 183.32678 52.126812"
   version="1.1"
   id="svg169"
   sodipodi:docname="logo-horizontal.svg"
   width="183.3268"
   height="52.126812"
   inkscape:version="1.1 (c4e8f9e, 2021-05-24)"
   xmlns:inkscape="http://www.inkscape.org/namespaces/inkscape"
   xmlns:sodipodi="http://sodipodi.sourceforge.net/DTD/sodipodi-0.dtd"
   xmlns:xlink="http://www.w3.org/1999/xlink"
   xmlns="http://www.w3.org/2000/svg"
   xmlns:svg="http://www.w3.org/2000/svg"
   xmlns:rdf="http://www.w3.org/1999/02/22-rdf-syntax-ns#"
   xmlns:cc="http://creativecommons.org/ns#"
   xmlns:dc="http://purl.org/dc/elements/1.1/">
  <sodipodi:namedview
     id="namedview171"
     pagecolor="#ffffff"
     bordercolor="#666666"
     borderopacity="1.0"
     inkscape:pageshadow="2"
     inkscape:pageopacity="0.0"
     inkscape:pagecheckerboard="0"
     showgrid="false"
     fit-margin-top="0"
     fit-margin-left="0"
     fit-margin-right="0"
     fit-margin-bottom="0"
     inkscape:zoom="4.7690909"
     inkscape:cx="31.13801"
     inkscape:cy="40.993138"
     inkscape:window-width="1312"
     inkscape:window-height="847"
     inkscape:window-x="0"
     inkscape:window-y="25"
     inkscape:window-maximized="0"
     inkscape:current-layer="svg169" />
  <defs
     id="defs119">
    <linearGradient
       id="a"
       x1="1.28"
       y1="164.53"
       x2="258.89001"
       y2="164.53"
       gradientUnits="userSpaceOnUse">
      <stop
         offset="0"
         stop-color="gold"
         id="stop99" />
      <stop
         offset="0.02"
         stop-color="#fcd403"
         id="stop101" />
      <stop
         offset="0.22"
         stop-color="#e6be19"
         id="stop103" />
      <stop
         offset="0.43"
         stop-color="#d7ad29"
         id="stop105" />
      <stop
         offset="0.68"
         stop-color="#cea432"
         id="stop107" />
      <stop
         offset="1"
         stop-color="#cba135"
         id="stop109" />
    </linearGradient>
    <linearGradient
       id="b"
       x1="24.75"
       y1="163.06"
       x2="282.35001"
       y2="163.06"
       xlink:href="#a"
       gradientTransform="matrix(0.16439886,0,0,0.15890541,-0.21043053,0)" />
    <linearGradient
       id="c"
       x1="76"
       y1="99.07"
       x2="212.99001"
       y2="233.78"
       xlink:href="#a" />
    <linearGradient
       id="d"
       x1="56.950001"
       y1="324.82999"
       x2="259.85001"
       y2="424.78"
       gradientUnits="userSpaceOnUse">
      <stop
         offset="0"
         stop-color="gold"
         id="stop114" />
      <stop
         offset="1"
         stop-color="#cba135"
         id="stop116" />
    </linearGradient>
    <linearGradient
       inkscape:collect="always"
       xlink:href="#d"
       id="linearGradient253"
       gradientUnits="userSpaceOnUse"
       x1="56.950001"
       y1="324.82999"
       x2="259.85001"
       y2="424.78"
       gradientTransform="matrix(0.45604699,0,0,0.44080802,54.384886,-133.87103)" />
    <linearGradient
       inkscape:collect="always"
       xlink:href="#d"
       id="linearGradient255"
       gradientUnits="userSpaceOnUse"
       x1="56.950001"
       y1="324.82999"
       x2="259.85001"
       y2="424.78"
       gradientTransform="matrix(0.45604699,0,0,0.44080802,54.384886,-133.87103)" />
    <linearGradient
       inkscape:collect="always"
       xlink:href="#d"
       id="linearGradient257"
       gradientUnits="userSpaceOnUse"
       x1="56.950001"
       y1="324.82999"
       x2="259.85001"
       y2="424.78"
       gradientTransform="matrix(0.45604699,0,0,0.44080802,54.384886,-133.87103)" />
    <linearGradient
       inkscape:collect="always"
       xlink:href="#d"
       id="linearGradient259"
       gradientUnits="userSpaceOnUse"
       x1="56.950001"
       y1="324.82999"
       x2="259.85001"
       y2="424.78"
       gradientTransform="matrix(0.45604699,0,0,0.44080802,54.384886,-133.87103)" />
    <linearGradient
       inkscape:collect="always"
       xlink:href="#d"
       id="linearGradient261"
       gradientUnits="userSpaceOnUse"
       x1="56.950001"
       y1="324.82999"
       x2="259.85001"
       y2="424.78"
       gradientTransform="matrix(0.45604699,0,0,0.44080802,54.384886,-133.87103)" />
    <linearGradient
       inkscape:collect="always"
       xlink:href="#d"
       id="linearGradient263"
       gradientUnits="userSpaceOnUse"
       x1="56.950001"
       y1="324.82999"
       x2="259.85001"
       y2="424.78"
       gradientTransform="matrix(0.45604699,0,0,0.44080802,54.384886,-133.87103)" />
    <linearGradient
       inkscape:collect="always"
       xlink:href="#d"
       id="linearGradient265"
       gradientUnits="userSpaceOnUse"
       x1="56.950001"
       y1="324.82999"
       x2="259.85001"
       y2="424.78"
       gradientTransform="matrix(0.45604699,0,0,0.44080802,54.384886,-133.87103)" />
    <linearGradient
       inkscape:collect="always"
       xlink:href="#a"
       id="linearGradient267"
       gradientUnits="userSpaceOnUse"
       x1="1.28"
       y1="164.53"
       x2="258.89001"
       y2="164.53"
       gradientTransform="matrix(0.16439886,0,0,0.15890541,-0.21043053,0)" />
  </defs>
  <title
     id="title121">Neobase-gold-logo</title>
  <path
     d="M 7.9634803,18.817578 V 40.508166 H 3.9817399 V 4.080691 L 0,0.23359088 V 44.358443 H 23.134205 L 19.150823,40.508166 H 11.955084 V 28.113543 l 3.35538,3.244849 0.624718,0.602251 0.882821,0.853323 15.92696,15.394756 H 15.926959 l 3.8979,3.850279 H 42.3475 Z"
     style="fill:url(#linearGradient267);stroke-width:0.161628"
     id="path129" />
  <path
     d="M 38.244104,33.238244 V 11.546068 h 3.983384 v 36.429063 l 3.980096,3.847099 V 7.697378 H 23.083242 l 3.981741,3.84869 h 7.197381 v 12.39462 L 13.472486,3.8502779 H 30.282267 L 26.382727,0 H 3.8600849 Z"
     style="fill:url(#b);stroke-width:0.161628"
     id="path131" />
  <polygon
     points="237.88,275.86 46.91,84.73 45.75,51.72 236.73,242.86 "
     style="fill:url(#c)"
     id="polygon133"
     transform="matrix(0.1618902,0,0,0.15648059,-0.20721945,0)" />
  <path
     d="M 70.141297,36.615873 59.241775,24.295292 v 11.40811 a 1.3955036,1.3488725 0 1 1 -2.786446,0 v -15.03596 c 0,-1.040307 1.413746,-2.071798 2.640513,-0.683255 L 69.799261,32.084368 V 20.667442 a 1.3955036,1.3488725 0 1 1 2.786448,0 v 15.03596 a 1.4046246,1.3576886 0 0 1 -0.8072,1.221038 1.3681408,1.3224239 0 0 1 -1.637212,-0.308567 z"
     style="fill:url(#linearGradient253);stroke-width:0.448362"
     id="path155" />
  <path
     d="m 90.129837,19.31416 v 2.812354 H 75.992381 V 19.31416 Z m 0,17.729298 H 75.992381 V 26.785855 h 14.137456 v 2.785906 H 78.888278 v 4.659342 h 11.241559 z"
     style="fill:url(#linearGradient255);stroke-width:0.448362"
     id="path157" />
  <path
     d="m 112.03833,28.178807 a 9.6453926,9.3230883 0 1 1 -9.6454,-9.323086 9.6545133,9.3319049 0 0 1 9.6454,9.323086 z m -9.6454,-6.409346 a 6.6309223,6.4093479 0 1 0 6.63093,6.409346 6.6218013,6.400532 0 0 0 -6.63093,-6.409346 z"
     style="fill:url(#linearGradient257);stroke-width:0.448362"
     id="path159" />
  <path
     d="m 125.92497,19.31416 a 5.2764629,5.1001482 0 0 1 3.56628,8.864647 5.2764629,5.1001482 0 0 1 -3.56628,8.864651 h -9.45386 a 1.3955036,1.3488725 0 0 1 -1.39551,-1.344464 v -7.520187 a 1.4000641,1.3532805 0 0 1 1.39551,-1.348872 h 9.45386 a 2.4945768,2.4112196 0 0 0 0,-4.822436 h -9.45386 a 1.3955036,1.3488725 0 1 1 0,-2.693339 z m 0,15.035961 a 2.4991374,2.4156278 0 1 0 0,-4.826847 h -8.05836 v 4.826847 z"
     style="fill:url(#linearGradient259);stroke-width:0.448362"
     id="path161" />
  <path
     d="m 133.42236,35.165616 c 0.98507,-2.173186 6.15209,-14.480542 7.25116,-15.4944 a 1.2130848,1.1725491 0 0 1 0.81632,-0.357056 1.1948429,1.1549169 0 0 1 0.81633,0.357056 c 1.10362,1.013858 6.26608,13.321214 7.25114,15.4944 0.73424,1.622174 -1.82419,2.693337 -2.54474,1.075571 l -5.52273,-12.183934 -5.51817,12.183934 c -0.73424,1.617766 -3.28353,0.546603 -2.54931,-1.075571 z"
     style="fill:url(#linearGradient261);stroke-width:0.448362"
     id="path163" />
  <path
     d="m 162.98334,23.113926 a 6.4439429,6.2286165 0 0 0 -4.50575,-1.547237 4.7064043,4.5491383 0 0 0 -1.5232,0.379095 2.9004585,2.8035389 0 0 0 -1.0489,0.762598 2.3440814,2.2657531 0 0 0 -0.54727,1.719151 c 0.25995,1.419401 2.22551,1.979228 4.19107,2.508198 3.25161,0.912471 6.47132,1.798496 6.07912,5.955315 v 0.02204 a 5.130528,4.9590897 0 0 1 -1.04892,2.406812 6.065424,5.8627462 0 0 1 -2.82749,1.798494 8.4824726,8.1990284 0 0 1 -3.67117,0.255671 12.769315,12.342624 0 0 1 -6.47131,-2.785906 l 1.82418,-2.20404 a 10.033033,9.6977757 0 0 0 4.98916,2.133511 5.6139379,5.4263461 0 0 0 2.4353,-0.149877 2.8320513,2.7374175 0 0 0 1.4183,-0.881614 1.8241877,1.7632319 0 0 0 0.41955,-0.934513 c 0.1277,-1.763233 -1.88803,-2.331875 -3.95849,-2.913741 -2.90956,-0.784638 -5.84194,-1.622173 -6.31623,-4.941458 v -0.101383 a 5.4725633,5.2896956 0 0 1 1.23132,-3.773316 6.3846574,6.1713116 0 0 1 2.04309,-1.49434 7.7163141,7.4584708 0 0 1 2.57211,-0.634763 9.3170383,9.0057065 0 0 1 6.60355,2.20404 z"
     style="fill:url(#linearGradient263);stroke-width:0.448362"
     id="path165" />
  <path
     d="m 182.42917,19.31416 v 2.812354 H 168.29172 V 19.31416 Z m 0,17.729298 H 168.29172 V 26.785855 h 14.13745 v 2.785906 h -11.24611 v 4.659342 h 11.24611 z"
     style="fill:url(#linearGradient265);stroke-width:0.448362"
     id="path167" />
  <metadata
     id="metadata271">
    <rdf:RDF>
      <cc:Work
         rdf:about="">
        <dc:title>Neobase-gold-logo</dc:title>
      </cc:Work>
    </rdf:RDF>
  </metadata>
</svg>
