<?xml version="1.0" encoding="UTF-8" standalone="no"?>
<svg
   width="129.69563"
   height="25.58441"
   viewBox="0 0 129.69563 25.58441"
   fill="none"
   version="1.1"
   id="svg938"
   sodipodi:docname="splits-logo.svg"
   inkscape:version="1.1 (c4e8f9e, 2021-05-24)"
   xmlns:inkscape="http://www.inkscape.org/namespaces/inkscape"
   xmlns:sodipodi="http://sodipodi.sourceforge.net/DTD/sodipodi-0.dtd"
   xmlns="http://www.w3.org/2000/svg"
   xmlns:svg="http://www.w3.org/2000/svg">
  <defs
     id="defs942" />
  <sodipodi:namedview
     id="namedview940"
     pagecolor="#ffffff"
     bordercolor="#666666"
     borderopacity="1.0"
     inkscape:pageshadow="2"
     inkscape:pageopacity="0.0"
     inkscape:pagecheckerboard="0"
     showgrid="false"
     inkscape:zoom="3.4411624"
     inkscape:cx="64.367784"
     inkscape:cy="74.829365"
     inkscape:window-width="3440"
     inkscape:window-height="1387"
     inkscape:window-x="0"
     inkscape:window-y="25"
     inkscape:window-maximized="1"
     inkscape:current-layer="svg938"
     inkscape:snap-global="false"
     fit-margin-top="0"
     fit-margin-left="0"
     fit-margin-right="0"
     fit-margin-bottom="0" />
  <g
     id="g4824"
     style="fill:#eeb92f;fill-opacity:1"
     transform="matrix(0.15114486,0,0,0.15114486,-83.120692,-83.759391)">
    <path
       d="m 567.94699,656.80988 c 9.94456,0 18.00642,-8.06185 18.00642,-18.00641 0,-9.94456 -8.06186,-18.00641 -18.00642,-18.00641 -9.94468,0 -18.00641,8.06185 -18.00641,18.00641 0,9.94456 8.06173,18.00641 18.00641,18.00641 z"
       fill="#222222"
       id="path4792"
       style="fill:#eeb92f;fill-opacity:1;stroke-width:0.206868" />
    <path
       d="m 609.53388,654.10881 c 8.45283,0 15.30533,-6.8523 15.30533,-15.30534 0,-8.45304 -6.8525,-15.30534 -15.30533,-15.30534 -8.45304,0 -15.30555,6.8523 -15.30555,15.30534 0,8.45304 6.85251,15.30534 15.30555,15.30534 z"
       fill="#222222"
       id="path4794"
       style="fill:#eeb92f;fill-opacity:1;stroke-width:0.206868" />
    <path
       d="m 588.74033,690.12515 c 8.45304,0 15.30555,-6.8523 15.30555,-15.30534 0,-8.45304 -6.85251,-15.30533 -15.30555,-15.30533 -8.45283,0 -15.30534,6.85229 -15.30534,15.30533 0,8.45304 6.85251,15.30534 15.30534,15.30534 z"
       fill="#222222"
       id="path4796"
       style="fill:#eeb92f;fill-opacity:1;stroke-width:0.206868" />
    <path
       d="m 630.33073,687.42428 c 6.96132,0 12.60447,-5.64315 12.60447,-12.60447 0,-6.96131 -5.64315,-12.60447 -12.60447,-12.60447 -6.96131,0 -12.60447,5.64316 -12.60447,12.60447 0,6.96132 5.64316,12.60447 12.60447,12.60447 z"
       fill="#222222"
       id="path4798"
       style="fill:#eeb92f;fill-opacity:1;stroke-width:0.206868" />
    <path
       d="m 671.91762,684.72341 c 5.46959,0 9.90339,-4.43401 9.90339,-9.9036 0,-5.46959 -4.4338,-9.9036 -9.90339,-9.9036 -5.46959,0 -9.9036,4.43401 -9.9036,9.9036 0,5.46959 4.43401,9.9036 9.9036,9.9036 z"
       fill="#222222"
       id="path4800"
       style="fill:#eeb92f;fill-opacity:1;stroke-width:0.206868" />
    <path
       d="m 713.5045,682.02234 c 3.97787,0 7.20253,-3.22466 7.20253,-7.20253 0,-3.97786 -3.22466,-7.20252 -7.20253,-7.20252 -3.97786,0 -7.20252,3.22466 -7.20252,7.20252 0,3.97787 3.22466,7.20253 7.20252,7.20253 z"
       fill="#222222"
       id="path4802"
       style="fill:#eeb92f;fill-opacity:1;stroke-width:0.206868" />
    <path
       d="m 609.53388,723.43711 c 6.96111,0 12.60426,-5.64336 12.60426,-12.60447 0,-6.96132 -5.64315,-12.60447 -12.60426,-12.60447 -6.96132,0 -12.60447,5.64315 -12.60447,12.60447 0,6.96111 5.64315,12.60447 12.60447,12.60447 z"
       fill="#222222"
       id="path4804"
       style="fill:#eeb92f;fill-opacity:1;stroke-width:0.206868" />
    <path
       d="m 651.12407,720.73603 c 5.46959,0 9.9036,-4.43401 9.9036,-9.90339 0,-5.46959 -4.43401,-9.9036 -9.9036,-9.9036 -5.46938,0 -9.90339,4.43401 -9.90339,9.9036 0,5.46938 4.43401,9.90339 9.90339,9.90339 z"
       fill="#222222"
       id="path4806"
       style="fill:#eeb92f;fill-opacity:1;stroke-width:0.206868" />
    <path
       d="m 692.71096,718.03516 c 3.97786,0 7.20252,-3.22466 7.20252,-7.20252 0,-3.97787 -3.22466,-7.20253 -7.20252,-7.20253 -3.97787,0 -7.20253,3.22466 -7.20253,7.20253 0,3.97786 3.22466,7.20252 7.20253,7.20252 z"
       fill="#222222"
       id="path4808"
       style="fill:#eeb92f;fill-opacity:1;stroke-width:0.206868" />
    <path
       d="m 588.74033,618.09246 c 8.45304,0 15.30555,-6.85229 15.30555,-15.30533 0,-8.45284 -6.85251,-15.30534 -15.30555,-15.30534 -8.45283,0 -15.30534,6.8525 -15.30534,15.30534 0,8.45304 6.85251,15.30533 15.30534,15.30533 z"
       fill="#222222"
       id="path4810"
       style="fill:#eeb92f;fill-opacity:1;stroke-width:0.206868" />
    <path
       d="m 630.33073,615.3916 c 6.96132,0 12.60447,-5.64316 12.60447,-12.60447 0,-6.96132 -5.64315,-12.60447 -12.60447,-12.60447 -6.96131,0 -12.60447,5.64315 -12.60447,12.60447 0,6.96131 5.64316,12.60447 12.60447,12.60447 z"
       fill="#222222"
       id="path4812"
       style="fill:#eeb92f;fill-opacity:1;stroke-width:0.206868" />
    <path
       d="m 671.91762,612.69073 c 5.46959,0 9.90339,-4.43401 9.90339,-9.9036 0,-5.46959 -4.4338,-9.9034 -9.90339,-9.9034 -5.46959,0 -9.9036,4.43381 -9.9036,9.9034 0,5.46959 4.43401,9.9036 9.9036,9.9036 z"
       fill="#222222"
       id="path4814"
       style="fill:#eeb92f;fill-opacity:1;stroke-width:0.206868" />
    <path
       d="m 713.5045,609.98965 c 3.97787,0 7.20253,-3.22466 7.20253,-7.20252 0,-3.97787 -3.22466,-7.20253 -7.20253,-7.20253 -3.97786,0 -7.20252,3.22466 -7.20252,7.20253 0,3.97786 3.22466,7.20252 7.20252,7.20252 z"
       fill="#222222"
       id="path4816"
       style="fill:#eeb92f;fill-opacity:1;stroke-width:0.206868" />
    <path
       d="m 609.53388,579.37525 c 6.96111,0 12.60426,-5.64315 12.60426,-12.60447 0,-6.9611 -5.64315,-12.60446 -12.60426,-12.60446 -6.96132,0 -12.60447,5.64336 -12.60447,12.60446 0,6.96132 5.64315,12.60447 12.60447,12.60447 z"
       fill="#222222"
       id="path4818"
       style="fill:#eeb92f;fill-opacity:1;stroke-width:0.206868" />
    <path
       d="m 651.12407,576.67438 c 5.46959,0 9.9036,-4.434 9.9036,-9.9036 0,-5.46959 -4.43401,-9.90339 -9.9036,-9.90339 -5.46938,0 -9.90339,4.4338 -9.90339,9.90339 0,5.4696 4.43401,9.9036 9.90339,9.9036 z"
       fill="#222222"
       id="path4820"
       style="fill:#eeb92f;fill-opacity:1;stroke-width:0.206868" />
    <path
       d="m 692.71096,573.97331 c 3.97786,0 7.20252,-3.22466 7.20252,-7.20253 0,-3.97786 -3.22466,-7.20252 -7.20252,-7.20252 -3.97787,0 -7.20253,3.22466 -7.20253,7.20252 0,3.97787 3.22466,7.20253 7.20253,7.20253 z"
       fill="#222222"
       id="path4822"
       style="fill:#eeb92f;fill-opacity:1;stroke-width:0.206868" />
  </g>
  <g
     aria-label="CantoSplits"
     id="text4828"
     style="font-size:20.8823px;line-height:1.25;fill:#eeb92f;fill-opacity:1;stroke-width:0.522056"
     transform="matrix(0.8347948,0,0,0.79315871,-503.7347,-452.68403)">
    <path
       d="m 649.48522,581.34405 h 1.04411 v 1.04411 h 1.04412 v 2.08823 h -2.08823 v -1.04411 h -1.04412 v -1.04412 l -4.17646,0.0418 v 1.00235 h -1.04411 v 8.35292 h 1.04411 v 1.04411 h 4.17646 v -1.04411 h 1.04412 v -1.04412 h 2.08823 v 2.08823 h -1.04412 v 1.04412 h -1.04411 v 1.04411 h -6.26469 v -1.04411 h -1.04412 v -1.04412 h -1.04411 v -10.44115 h 1.04411 v -1.04411 h 1.04412 v -1.04412 h 6.26469 z"
       style="font-family:ModeSeven;-inkscape-font-specification:ModeSeven;fill:#eeb92f;fill-opacity:1"
       id="path5955" />
    <path
       d="m 656.78586,590.74108 v 2.08823 h 5.22058 v -2.08823 z m -2.08823,-1.04411 h 1.04412 v -1.04412 h 6.26469 v -1.04411 h -1.04412 v -1.04412 h -5.22057 v -2.08823 h 6.26469 v 1.04412 h 1.04411 v 1.04411 h 1.04412 v 8.35292 h -8.35292 v -1.04411 h -1.04412 v -1.04412 h -1.04411 v -2.08823 h 1.04411 z"
       style="font-family:ModeSeven;-inkscape-font-specification:ModeSeven;fill:#eeb92f;fill-opacity:1"
       id="path5957" />
    <path
       d="m 668.26297,594.91754 h -2.08823 v -10.44115 h 8.35292 v 1.04412 h 1.04412 v 1.04411 h 1.04411 v 8.35292 h -2.08823 v -7.3088 h -1.04411 v -1.04412 h -5.22058 z"
       style="font-family:ModeSeven;-inkscape-font-specification:ModeSeven;fill:#eeb92f;fill-opacity:1"
       id="path5959" />
    <path
       d="m 682.96065,591.7852 h 1.04412 v 1.04411 h 1.04411 v 2.08823 h -2.08823 v -1.04411 h -1.04411 v -1.04412 h -1.04412 v -6.26469 h -2.08823 v -2.08823 h 2.08823 v -4.17646 h 2.08823 v 4.17646 h 2.08823 v 2.08823 h -2.08823 z"
       style="font-family:ModeSeven;-inkscape-font-specification:ModeSeven;fill:#eeb92f;fill-opacity:1"
       id="path5961" />
    <path
       d="m 690.34953,586.56462 v 1.04412 h -1.04411 v 4.17646 h 1.04411 v 1.04411 h 4.17646 v -1.04411 h 1.04412 v -4.17646 h -1.04412 v -1.04412 z m -2.08823,-1.04411 h 1.04412 v -1.04412 h 6.26469 v 1.04412 h 1.04411 v 1.04411 h 1.04412 v 6.26469 h -1.04412 v 1.04412 h -1.04411 v 1.04411 h -6.26469 v -1.04411 h -1.04412 v -1.04412 h -1.04411 v -6.26469 h 1.04411 z"
       style="font-family:ModeSeven;-inkscape-font-specification:ModeSeven;fill:#eeb92f;fill-opacity:1"
       id="path5963" />
    <path
       d="m 701.82664,591.7852 h 1.04411 v 1.04411 h 4.17646 v -1.04411 h 1.04412 v -2.08823 h -1.04412 v -1.04412 h -5.22057 v -1.04411 h -1.04412 v -1.04412 h -1.04411 v -4.17646 h 1.04411 v -1.04411 h 1.04412 v -1.04412 h 6.26469 v 1.04412 h 1.04411 v 1.04411 h 1.04412 v 2.08823 h -2.08823 v -1.04411 h -1.04412 v -1.04412 h -4.17646 v 1.04412 h -1.04411 v 2.08823 h 1.04411 v 1.04411 h 5.22058 v 1.04412 h 1.04411 v 1.04411 h 1.04412 v 4.17646 h -1.04412 v 1.04412 h -1.04411 v 1.04411 h -6.26469 v -1.04411 h -1.04412 v -1.04412 h -1.04411 v -2.08823 h 2.08823 z"
       style="font-family:ModeSeven;-inkscape-font-specification:ModeSeven;fill:#eeb92f;fill-opacity:1"
       id="path5965" />
    <path
       d="m 720.61255,593.87343 v 1.04411 h -6.26469 v 4.17646 h -2.08823 v -14.61761 h 8.35292 v 1.04412 h 1.04412 v 1.04411 h 1.04411 v 6.26469 h -1.04411 v 1.04412 z m -6.26469,-1.04412 h 5.22058 v -1.04411 h 1.04411 v -4.17646 h -1.04411 v -1.04412 h -5.22058 z"
       style="font-family:ModeSeven;-inkscape-font-specification:ModeSeven;fill:#eeb92f;fill-opacity:1"
       id="path5967" />
    <path
       d="m 724.86908,580.29993 h 4.17646 v 12.52938 h 2.08823 v 2.08823 h -6.26469 v -2.08823 h 2.08823 v -10.44115 h -2.08823 z"
       style="font-family:ModeSeven;-inkscape-font-specification:ModeSeven;fill:#eeb92f;fill-opacity:1"
       id="path5969" />
    <path
       d="m 735.47853,580.29993 h 2.08823 v 2.08823 h -2.08823 z m -2.08823,12.52938 h 2.08823 v -6.26469 h -2.08823 v -2.08823 h 4.17646 v 8.35292 h 2.08823 v 2.08823 h -6.26469 z"
       style="font-family:ModeSeven;-inkscape-font-specification:ModeSeven;fill:#eeb92f;fill-opacity:1"
       id="path5971" />
    <path
       d="m 744.08799,591.7852 h 1.04411 v 1.04411 h 1.04412 v 2.08823 h -2.08823 v -1.04411 h -1.04412 v -1.04412 h -1.04411 v -6.26469 h -2.08823 v -2.08823 h 2.08823 v -4.17646 h 2.08823 v 4.17646 h 2.08823 v 2.08823 h -2.08823 z"
       style="font-family:ModeSeven;-inkscape-font-specification:ModeSeven;fill:#eeb92f;fill-opacity:1"
       id="path5973" />
    <path
       d="m 750.43275,584.47639 h 8.35292 v 2.08823 h -7.30881 v 2.08823 h 5.22058 v 1.04412 h 1.04411 v 1.04411 h 1.04412 v 2.08823 h -1.04412 v 1.04412 h -1.04411 v 1.04411 h -8.35292 v -2.08823 h 7.3088 v -2.08823 h -5.22057 v -1.04411 h -1.04412 v -1.04412 h -1.04411 v -2.08823 h 1.04411 v -1.04411 h 1.04412 z"
       style="font-family:ModeSeven;-inkscape-font-specification:ModeSeven;fill:#eeb92f;fill-opacity:1"
       id="path5975" />
  </g>
</svg>
